HIERARCHY
ROOT Hips
{
	OFFSET 0.00000 0.00000 0.00000
	CHANNELS 6 Xposition Yposition Zposition Zrotation Yrotation Xrotation 
	JOINT LHipJoint
	{
		OFFSET 0 0 0
		CHANNELS 3 Zrotation Yrotation Xrotation
		JOINT LeftUpLeg
		{
			OFFSET 1.54859 -1.61379 0.86856
			CHANNELS 3 Zrotation Yrotation Xrotation
			JOINT LeftLeg
			{
				OFFSET 2.25087 -6.18423 0.00000
				CHANNELS 3 Zrotation Yrotation Xrotation
				JOINT LeftFoot
				{
					OFFSET 2.40328 -6.60297 0.00000
					CHANNELS 3 Zrotation Yrotation Xrotation
					JOINT LeftToeBase
					{
						OFFSET 0.17435 -0.47901 2.02453
						CHANNELS 3 Zrotation Yrotation Xrotation
						End Site
						{
							OFFSET 0.00000 -0.00000 1.04844
						}
					}
				}
			}
		}
	}
	JOINT RHipJoint
	{
		OFFSET 0 0 0
		CHANNELS 3 Zrotation Yrotation Xrotation
		JOINT RightUpLeg
		{
			OFFSET -1.54669 -1.61379 0.86856
			CHANNELS 3 Zrotation Yrotation Xrotation
			JOINT RightLeg
			{
				OFFSET -2.28132 -6.26789 0.00000
				CHANNELS 3 Zrotation Yrotation Xrotation
				JOINT RightFoot
				{
					OFFSET -2.51636 -6.91365 0.00000
					CHANNELS 3 Zrotation Yrotation Xrotation
					JOINT RightToeBase
					{
						OFFSET -0.15124 -0.41552 2.21090
						CHANNELS 3 Zrotation Yrotation Xrotation
						End Site
						{
							OFFSET -0.00000 -0.00000 1.13399
						}
					}
				}
			}
		}
	}
	JOINT LowerBack
	{
		OFFSET 0 0 0
		CHANNELS 3 Zrotation Yrotation Xrotation
		JOINT Spine
		{
			OFFSET -0.04287 2.26161 -0.25690
			CHANNELS 3 Zrotation Yrotation Xrotation
			JOINT Spine1
			{
				OFFSET 0.02248 2.28395 -0.10140
				CHANNELS 3 Zrotation Yrotation Xrotation
				JOINT Neck
				{
					OFFSET 0 0 0
					CHANNELS 3 Zrotation Yrotation Xrotation
					JOINT Neck1
					{
						OFFSET -0.11644 1.38496 0.11345
						CHANNELS 3 Zrotation Yrotation Xrotation
						JOINT Head
						{
							OFFSET 0.29383 1.36600 0.06642
							CHANNELS 3 Zrotation Yrotation Xrotation
							End Site
							{
								OFFSET 0.11075 1.41395 -0.00294
							}
						}
					}
				}
				JOINT LeftShoulder
				{
					OFFSET 0 0 0
					CHANNELS 3 Zrotation Yrotation Xrotation
					JOINT LeftArm
					{
						OFFSET 3.51628 0.59542 -0.30346
						CHANNELS 3 Zrotation Yrotation Xrotation
						JOINT LeftForeArm
						{
							OFFSET 4.76405 -0.00000 0.00000
							CHANNELS 3 Zrotation Yrotation Xrotation
							JOINT LeftHand
							{
								OFFSET 3.13759 -0.00000 -0.00000
								CHANNELS 3 Zrotation Yrotation Xrotation
								JOINT LeftFingerBase
								{
									OFFSET 0 0 0
									CHANNELS 3 Zrotation Yrotation Xrotation
									JOINT LeftHandIndex1
									{
										OFFSET 0.73226 -0.00000 -0.00000
										CHANNELS 3 Zrotation Yrotation Xrotation
										End Site
										{
											OFFSET 0.59037 -0.00000 -0.00000
										}
									}
								}
								JOINT LThumb
								{
									OFFSET 0 0 0
									CHANNELS 3 Zrotation Yrotation Xrotation
									End Site
									{
										OFFSET 0.59938 -0.00000 0.59938
									}
								}
							}
						}
					}
				}
				JOINT RightShoulder
				{
					OFFSET 0 0 0
					CHANNELS 3 Zrotation Yrotation Xrotation
					JOINT RightArm
					{
						OFFSET -3.30990 0.84213 -0.36430
						CHANNELS 3 Zrotation Yrotation Xrotation
						JOINT RightForeArm
						{
							OFFSET -5.10161 -0.00000 -0.00000
							CHANNELS 3 Zrotation Yrotation Xrotation
							JOINT RightHand
							{
								OFFSET -3.23267 -0.00000 -0.00000
								CHANNELS 3 Zrotation Yrotation Xrotation
								JOINT RightFingerBase
								{
									OFFSET 0 0 0
									CHANNELS 3 Zrotation Yrotation Xrotation
									JOINT RightHandIndex1
									{
										OFFSET -0.70200 -0.00000 -0.00000
										CHANNELS 3 Zrotation Yrotation Xrotation
										End Site
										{
											OFFSET -0.56597 -0.00000 -0.00000
										}
									}
								}
								JOINT RThumb
								{
									OFFSET 0 0 0
									CHANNELS 3 Zrotation Yrotation Xrotation
									End Site
									{
										OFFSET -0.57461 -0.00000 0.57461
									}
								}
							}
						}
					}
				}
			}
		}
	}
}
MOTION
Frames: 16
Frame Time: 0.037037
0.00 0.00 0.00 346.1750 70.6736 401.3820 0.0000 0.0000 0.0000 -33.7358 -18.3132 -110.1366 13.8755 19.0758 71.8239 -0.2683 -9.3635 1.2530 0.0126 -0.7247 -1.9917 0.0000 0.0000 0.0000 13.3427 -4.8706 -41.2335 -4.4850 -12.7793 38.5477 -0.5753 2.0120 -13.7789 -7.4381 15.6900 -50.5125 -3.6641 1.4489 -10.6439 1.3903 2.3268 1.0739 3.9164 0.9765 6.9129 -9.6089 0.1436 -6.0147 12.8527 3.3291 -21.3642 5.6690 2.0037 -5.7064 0.0000 0.0000 0.0000 -86.3804 33.1866 23.7947 11.6634 -19.2979 -1.9896 -0.0000 0.0000 -10.8367 18.9815 32.7165 10.5315 -7.1250 0.0000 -0.0000 -16.4462 63.4381 -7.4581 0.0000 0.0000 0.0000 85.0762 20.2126 4.4906 -53.6786 54.3755 -29.1389 0.0000 -0.0000 -27.4935 -29.5876 31.6055 -16.5710 7.1250 -0.0000 -0.0000 1.1643 5.2972 1.2671
0.00 0.00 0.00 327.2660 73.2336 375.0650 0.0000 0.0000 0.0000 -38.7039 -13.7136 -95.7416 9.2379 16.9584 56.9092 -0.0052 -4.5828 -3.0158 0.9062 6.0662 16.9766 0.0000 0.0000 0.0000 17.2129 4.0391 -16.9719 -3.5862 -11.5885 34.2913 -0.0746 -2.3250 4.8749 -5.4814 13.9063 -42.8633 -3.0810 -0.2110 -5.1464 0.3540 -0.0376 3.5579 2.0964 -0.1613 6.6085 -9.0717 0.9094 -7.3768 17.3540 4.7144 -17.4382 6.9829 2.5396 -4.4445 -0.0000 0.0000 0.0000 -91.1943 23.5130 3.2412 8.6928 -14.6695 -1.1210 -0.0000 0.0000 -6.2495 21.7627 33.8682 12.5428 -7.1250 0.0000 -0.0000 -14.2079 65.3058 -7.0378 -0.0000 0.0000 0.0000 96.1557 4.8754 4.0920 -71.8926 58.7241 -44.3857 0.0000 -0.0000 -51.0680 -22.7133 24.5365 -9.8609 7.1250 -0.0000 -0.0000 4.1030 -3.7085 3.8391
0.00 0.00 0.00 318.8280 73.3819 367.2930 0.0000 0.0000 0.0000 -31.2425 -14.8461 -91.0951 11.7794 18.2958 65.2878 0.3260 -5.3146 -10.2602 0.7313 5.4636 15.2357 0.0000 0.0000 0.0000 19.4885 4.0267 -23.1379 -7.5743 -15.7970 51.0145 0.0434 4.2035 3.6731 -5.2447 13.6542 -41.8696 -4.5976 -1.8214 -5.9729 1.7869 -2.1405 2.6783 4.2130 -1.2852 6.4054 -10.7031 2.3272 -8.0372 17.6015 6.5390 -15.5687 7.2929 3.5763 -4.0864 0.0000 0.0000 0.0000 -95.8460 15.3037 -10.1593 7.6623 -13.0040 -0.8746 -0.0000 -0.0000 1.1718 25.0886 33.7238 14.5707 -7.1250 0.0000 -0.0000 -10.0090 66.1143 -5.1214 0.0000 0.0000 0.0000 94.8358 -4.7591 7.5875 -80.1327 59.6289 -51.4653 0.0000 -0.0000 -64.7408 -17.8475 20.7650 -6.5123 7.1250 -0.0000 -0.0000 6.8245 -8.3860 5.7987
0.00 0.00 0.00 313.7240 73.3006 362.6400 0.0000 0.0000 0.0000 -24.8807 -16.2095 -86.9736 13.2081 18.8560 69.7705 0.9782 -3.7715 -17.8081 0.0078 -0.5688 -1.5630 0.0000 0.0000 0.0000 19.9289 5.1283 -31.2854 -12.8485 -18.7268 68.6542 0.0056 1.4363 1.1005 -4.3598 12.6244 -37.9781 -1.2085 -1.6098 -7.4065 -0.6001 -1.9617 3.5235 -0.2293 -0.9953 7.8892 -8.0235 2.2226 -8.0630 18.5356 6.9508 -17.8568 7.1619 3.6232 -4.7763 0.0000 0.0000 0.0000 -91.1264 4.8823 -16.1356 6.5747 -11.2172 -0.6464 -0.0000 -0.0000 9.1954 27.3170 32.8231 15.6409 -7.1250 0.0000 -0.0000 -6.4877 65.8502 -3.2717 0.0000 0.0000 0.0000 99.6210 -8.1261 8.0078 -87.6728 59.9795 -57.9847 0.0000 -0.0000 -69.9603 -14.0677 18.0455 -4.4386 7.1250 -0.0000 -0.0000 9.1622 -11.5942 7.2292
0.00 0.00 0.00 313.7120 72.9298 363.3230 0.0000 0.0000 0.0000 -23.2843 -16.5233 -83.4862 14.2238 19.1805 72.8869 1.5573 -3.1757 -22.7817 0.0971 -2.0095 -5.5318 0.0000 0.0000 0.0000 18.0409 7.8974 -42.9394 -19.2795 -19.9875 87.8930 0.1016 -5.6499 -1.7779 -4.4847 12.7788 -38.5461 -1.3854 -1.9440 -7.2043 -0.7654 -2.3832 3.2948 -0.3501 -1.2049 7.5307 -8.4373 2.7037 -7.4181 18.0888 7.9130 -19.7157 7.0730 4.0867 -5.6106 0.0000 -0.0000 0.0000 -90.8761 -4.7259 -21.1755 6.3051 -10.7701 -0.5949 -0.0000 -0.0000 15.7446 27.9368 31.7843 15.6061 -7.1250 0.0000 -0.0000 -5.0008 64.9593 -2.4169 0.0000 -0.0000 0.0000 99.4792 -10.2818 8.9491 -94.9358 59.9077 -64.2732 0.0000 -0.0000 -72.4012 -9.3857 15.4373 -2.5193 7.1250 -0.0000 -0.0000 12.2661 -14.5868 8.9936
0.00 0.00 0.00 312.2270 71.8221 363.6370 0.0000 0.0000 0.0000 -23.6912 -14.4279 -78.6804 14.7327 19.3214 74.4301 2.2877 -5.7687 -27.4003 0.3202 -3.6374 -10.0588 0.0000 0.0000 0.0000 13.7658 15.4283 -61.6851 -26.0254 -19.1063 107.8730 0.4027 -11.1877 -4.9192 -2.3247 9.5121 -27.4106 -0.6902 -2.2687 -7.7134 -0.3538 -2.9275 2.5423 -0.3829 -1.4537 7.0109 -9.7812 2.5185 -6.6756 19.8057 8.1990 -20.9895 7.9445 4.1863 -6.2763 0.0000 0.0000 0.0000 -91.9224 -13.9990 -6.7637 9.7166 -16.2951 -1.3944 -0.0000 -0.0000 0.4980 29.4966 30.9436 16.2185 -7.1250 0.0000 -0.0000 -2.5178 64.5221 -1.1902 0.0000 0.0000 0.0000 97.5843 -9.0911 9.6869 -102.6943 59.3823 -70.9708 0.0000 -0.0000 -71.7085 -5.8554 13.1166 -1.3332 7.1250 -0.0000 -0.0000 14.7384 -17.0529 10.1107
0.00 0.00 0.00 289.2100 66.5550 341.9560 0.0000 0.0000 0.0000 -21.8265 -0.2932 -53.0247 9.3085 17.0022 57.1510 1.3953 -9.4074 -21.1978 0.8863 -6.0010 -16.7874 0.0000 0.0000 0.0000 7.2522 30.1797 -97.4622 -23.2287 -19.7482 99.4782 0.1827 -8.4194 -7.0484 -2.8993 10.5303 -30.7116 14.2927 -2.5917 -6.1277 4.7541 -4.6272 0.8106 -3.3350 -2.0019 3.6012 -8.2274 4.6130 -6.4328 15.6766 9.1996 -15.6346 6.0640 4.6986 -4.6296 0.0000 0.0000 0.0000 -91.3191 -16.5333 30.0758 38.1412 -46.9293 -17.0687 -0.0000 0.0000 -15.4551 32.0749 22.0657 13.2478 -7.1250 0.0000 -0.0000 3.5174 55.5110 0.9082 0.0000 0.0000 0.0000 86.9911 9.9056 13.3882 -116.8362 57.0957 -83.0142 0.0000 -0.0000 -58.8172 -6.9002 12.4038 -1.4890 7.1250 -0.0000 -0.0000 14.0726 -17.7016 9.4167
0.00 0.00 0.00 284.1280 64.4072 335.4310 0.0000 0.0000 0.0000 -19.1368 2.7248 -40.5607 6.3586 14.7671 46.4045 0.2306 -5.7633 -8.8611 0.0027 -0.3336 -0.9167 0.0000 0.0000 0.0000 10.4062 31.5469 -96.8736 -17.7691 -19.8803 83.4649 -0.1630 -0.8474 -7.9842 -5.1539 13.5550 -41.4832 18.6178 -3.3166 -4.1484 7.1047 -5.3749 0.8884 -3.0047 -2.3464 2.3143 -6.7190 5.7882 -6.7516 11.6106 9.8353 -13.4495 4.4889 5.0688 -3.7778 -0.0000 -0.0000 0.0000 -91.3973 -14.0560 33.9186 45.2629 -50.8966 -22.4426 -0.0000 0.0000 -7.8803 40.1931 18.3703 14.9098 -7.1250 0.0000 -0.0000 12.7461 53.0265 2.5499 -0.0000 -0.0000 0.0000 86.5306 19.9278 14.8178 -118.3681 56.7293 -84.2977 0.0000 -0.0000 -43.1047 3.5936 10.9786 0.6852 7.1250 -0.0000 -0.0000 21.2724 -19.2911 14.0455
0.00 0.00 0.00 281.3590 63.2402 332.4860 0.0000 0.0000 0.0000 -17.0015 2.3295 -28.7583 3.8344 11.9367 35.5085 0.0095 0.4311 1.7357 1.2065 -6.9685 -19.6221 0.0000 0.0000 0.0000 15.9219 31.4497 -94.8539 -11.7114 -18.2660 65.0710 -0.1216 7.0914 -7.4395 -5.6082 14.0376 -43.3883 21.4304 -3.9480 -3.6862 9.3037 -6.0655 0.5635 -2.0122 -2.6848 1.5420 -4.2753 7.1391 -7.6759 6.2000 10.7145 -11.1892 2.7070 5.5658 -2.9500 0.0000 0.0000 0.0000 -92.3959 -11.0908 36.7960 46.5840 -51.5213 -23.4723 -0.0000 0.0000 -5.2575 42.7490 20.6343 18.0428 -7.1250 0.0000 -0.0000 15.9621 56.4077 4.5459 0.0000 0.0000 0.0000 89.5691 29.4487 21.0335 -123.0267 55.4479 -88.1648 0.0000 -0.0000 -30.7319 6.9309 10.7027 1.2932 7.1250 -0.0000 -0.0000 23.4917 -19.5228 15.6517
0.00 0.00 0.00 284.6360 62.5337 330.1440 0.0000 0.0000 0.0000 -18.6555 1.3545 -11.0336 2.5636 9.9526 28.8233 -0.3444 10.5722 -1.5150 1.0090 -6.3915 -17.9248 0.0000 0.0000 0.0000 29.5550 28.2212 -82.9803 -5.6781 -14.1090 43.6759 0.9617 17.3756 2.9116 -3.8683 11.9830 -35.6720 21.6185 -5.4672 0.1959 10.9297 -7.0461 1.8656 -0.0191 -3.1326 0.7753 -3.4874 8.3588 -9.0467 2.1702 11.8929 -9.7111 1.3422 6.1775 -1.9330 0.0000 0.0000 0.0000 -95.0316 -7.5217 39.9102 41.4381 -48.8992 -19.5161 -0.0000 0.0000 -9.3783 41.4633 18.7180 15.8307 -7.1250 0.0000 -0.0000 14.2108 53.7466 3.1046 0.0000 0.0000 0.0000 97.5478 38.5982 39.4327 -128.2503 53.6773 -92.4223 0.0000 -0.0000 -13.1160 7.1658 10.4450 1.3057 7.1250 -0.0000 -0.0000 23.6843 -19.7569 15.6677
0.00 0.00 0.00 289.8080 63.3973 334.1740 0.0000 0.0000 0.0000 -21.5827 5.0909 -13.2049 5.6063 14.0356 43.3804 -0.0497 4.0251 -0.6483 1.6949 -8.1994 -23.3213 0.0000 0.0000 0.0000 38.3228 24.3761 -77.1039 -3.7370 -11.8020 35.0349 0.7797 17.7418 16.0566 -0.1076 2.1151 -5.8239 21.0245 -4.6298 -0.1937 10.9643 -6.0401 1.7922 0.2216 -2.6187 1.1272 -2.9188 8.3094 -9.7546 0.1330 11.7359 -11.1783 0.6129 6.1382 -2.1158 -0.0000 0.0000 0.0000 -97.6305 -5.0324 43.1579 33.4779 -43.6942 -13.7511 -0.0000 0.0000 -13.3019 32.9777 21.2040 13.2074 -7.1250 0.0000 -0.0000 4.6505 54.7388 1.1143 -0.0000 0.0000 0.0000 104.6734 42.2262 61.8396 -128.4168 53.6144 -92.5563 0.0000 0.0000 8.6025 0.9921 11.2793 0.1941 7.1250 -0.0000 -0.0000 19.5078 -18.9947 12.8597
0.00 0.00 0.00 291.3520 64.2588 333.7990 0.0000 0.0000 0.0000 -21.8192 7.3418 -15.8291 8.6870 16.6020 55.0012 -0.0121 1.9642 -0.4851 0.8466 -5.8685 -16.4032 0.0000 0.0000 0.0000 37.6798 22.0929 -74.7638 -4.7598 -13.1081 39.7744 0.8965 16.6546 8.8065 -0.0174 -0.8523 2.3426 20.4170 -4.2064 0.5560 10.9834 -5.3127 2.2020 0.5569 -2.2294 1.3050 -4.1967 7.5090 -10.5540 0.4442 10.8794 -12.1059 0.9194 5.7893 -2.3748 -0.0000 -0.0000 0.0000 -99.4439 -5.1357 44.9242 28.5387 -39.6075 -10.4654 -0.0000 0.0000 -14.6636 32.4572 23.1472 14.0371 -7.1250 0.0000 -0.0000 3.7482 56.8098 1.0859 -0.0000 -0.0000 0.0000 104.9888 42.7012 70.6994 -124.5641 54.9657 -89.4274 0.0000 0.0000 16.1113 -3.7518 12.8178 -0.8335 7.1250 -0.0000 -0.0000 16.1772 -17.4228 11.0423
0.00 0.00 0.00 297.1830 64.6039 337.0070 0.0000 0.0000 0.0000 -21.9240 11.6830 -24.0060 15.4014 19.4852 76.4429 -0.0866 5.7294 -4.6247 0.3807 -3.9624 -10.9709 0.0000 0.0000 0.0000 32.2365 22.0513 -72.0536 -7.2607 -15.5475 49.8535 -0.1733 10.2867 -9.7434 -3.0532 10.7807 -31.5438 19.0551 -2.1550 1.4004 9.6333 -2.5321 2.8566 -0.2673 -0.8147 1.9079 -4.3743 5.6639 -11.3211 0.7677 8.5722 -13.4009 1.0462 4.6932 -2.6421 0.0000 0.0000 0.0000 -101.2924 -6.7363 44.0991 23.3273 -34.4447 -7.3226 -0.0000 0.0000 -14.0572 30.5749 27.9788 15.4920 -7.1250 0.0000 -0.0000 0.1843 61.6552 0.0747 0.0000 0.0000 0.0000 104.5047 42.3520 77.5440 -107.9344 58.7491 -75.4664 0.0000 0.0000 21.4039 -12.4912 17.5286 -3.8172 7.1250 -0.0000 -0.0000 10.1898 -12.2636 7.9222
0.00 0.00 0.00 292.8290 65.1167 333.9160 0.0000 0.0000 0.0000 -17.6996 10.9713 -33.2715 20.6668 19.9893 91.9499 -0.1499 8.0873 -7.5451 0.1002 -2.0417 -5.6208 0.0000 0.0000 0.0000 31.2020 22.1940 -71.4051 -8.4339 -16.4293 54.1108 -0.7179 6.3348 -15.1189 -4.5928 12.9100 -39.0324 20.6570 -0.9788 0.0091 9.4095 -1.2584 2.3485 -1.3499 -0.1372 2.3084 -5.2677 4.4273 -12.7373 2.3970 7.2321 -12.9612 1.7742 4.0608 -2.3287 -0.0000 0.0000 0.0000 -102.4863 -7.0390 40.4322 22.6781 -33.7349 -6.9587 -0.0000 0.0000 -11.7258 32.6145 31.5343 18.5036 -7.1250 0.0000 -0.0000 1.3168 66.0486 0.6689 -0.0000 0.0000 0.0000 104.8401 42.4285 79.3941 -87.8224 59.9821 -58.1142 0.0000 0.0000 24.8622 -14.4720 20.0493 -5.0565 7.1250 -0.0000 -0.0000 8.9534 -9.5282 7.4417
0.00 0.00 0.00 286.6060 67.2342 327.8540 0.0000 0.0000 0.0000 -11.3445 6.7216 -45.9024 26.6383 18.9089 109.7546 -0.0013 4.8353 -6.8568 0.1593 -2.5720 -7.0892 0.0000 0.0000 0.0000 30.6895 19.4056 -66.8071 -9.2061 -16.9386 56.8003 -1.1600 -2.3612 -21.3223 -6.5648 14.9541 -47.2083 20.9247 0.3031 -1.3037 8.3140 0.1004 1.9927 -2.6368 0.5675 2.9158 -5.4684 2.3040 -12.5604 4.4991 4.6443 -13.7976 2.4830 2.7818 -2.5949 -0.0000 -0.0000 0.0000 -102.1480 -6.8859 37.2379 26.1106 -37.3177 -8.9546 -0.0000 0.0000 -15.2527 37.9874 32.6750 22.8605 -7.1250 0.0000 -0.0000 8.8375 68.9295 5.0840 -0.0000 -0.0000 0.0000 106.4396 45.2115 79.4018 -53.3754 54.2693 -28.8926 0.0000 0.0000 29.8838 -12.3438 19.6203 -4.2027 7.1250 -0.0000 -0.0000 10.3106 -10.1847 8.4669
0.00 0.00 0.00 226.5110 78.9761 269.5910 0.0000 0.0000 0.0000 3.5508 -17.4720 -86.0777 23.2613 19.7431 99.5749 -0.0546 -4.2205 0.6630 0.5213 -4.6275 -12.8490 0.0000 0.0000 0.0000 25.1709 1.9970 -40.6042 -5.0169 -13.4029 40.8959 -0.3286 3.4183 -10.1935 -5.4755 13.9000 -42.8385 3.2172 2.0153 -11.0668 4.0037 2.2032 -0.7087 2.7392 1.1793 5.4282 -12.0721 -7.0091 -4.9453 21.6311 -6.6054 -15.0274 8.7912 -3.2225 -2.1769 0.0000 0.0000 0.0000 -97.6490 -17.1146 44.0231 37.0142 -46.1980 -16.2503 -0.0000 0.0000 -8.6455 21.4635 24.4644 9.2480 -7.1250 0.0000 -0.0000 -8.6556 55.8237 -2.3111 0.0000 0.0000 0.0000 95.3304 43.1096 42.6016 -11.2249 18.6322 -1.8471 0.0000 0.0000 34.1187 -18.7260 21.4657 -7.0714 7.1250 -0.0000 -0.0000 6.3106 -7.5445 5.4615
